<?xml version="1.0" encoding="utf-8"?><svg version="1.1" xmlns="http://www.w3.org/2000/svg" x="0px" y="0px" width="250px" height="250px">
<circle fill="#0054A4" cx="125" cy="125" r="124.75"/>
<ellipse transform="matrix(0.7071 -0.7071 0.7071 0.7071 -50.6305 124.608)" fill="#FFFFFF" cx="125.1" cy="123.42" rx="92.13" ry="92.13"/>
<path fill="#FFD457" d="M71.95,58.34h42.9V99l61.59,54.7l3.74,8.83l1.35-0.45l1.8-0.6l0.45,0.75l-0.31,0.74l0.6,2.55l-5.23,4.48
	l2.54,4.93l-3.29,7.62c0,0,1.05,1.49,3.29,0.6c0-0.15,0.15,6.13,0.15,6.13l-27.95,4.93c0,0-1.64,1.34-2.39,1.05l-0.75-4.64
	l-6.87-7.02l-0.15-1.19l-0.89-0.9l-3.45,2.24c0,0-0.74,2.24-1.64-0.15c0.15-0.15-1.19-7.17-1.19-7.17s0.3-1.79-1.65-0.9
	c-0.15,0-3.29,1.19-3.29,1.19l-3.88-1.05c0,0-3.14,1.2-2.69-3.29l-6.43-2.84l-5.23,2.39c0,0-1.79,0.9-1.79-0.74
	c0.15-0.15-0.45-4.04-0.45-4.04s-1.05-1.35-0.45-2.69c0,0.15-1.35-1.79-1.35-1.79l-2.84-2.69l0.89-1.95c0,0,0.3-1.05-1.34-1.64
	c0.15,0-3.44,0-3.88-1.49l-6.13-13.45c0,0-1.49-2.4,3.44-0.6c-0.15,0,0.75,0.15-0.75-2.25c0-0.15,1.05-2.84-1.94-2.54
	c0.15,0.15-2.54-0.14-2.54-0.14s-1.04-0.9-2.24-0.75c-1.2,0.15-1.8-0.6-1.65-2.09c0.15-1.49,0.89-4.64-1.8-7.47
	c0-0.15,0.9-0.9,0.9-0.9l5.53,2.99l2.25,3.73c0,0,1.94,1.94,0.75-1.05c0.15,0-2.09-3.59-2.09-3.59l-1.49-3.43
	c0,0-2.39-2.39,4.18-3.44c0.15,0.15,4.63-1.05,1.05-1.34c0.15,0.14-3.88-0.75-3.88-0.75s-3.14,2.24-2.85-0.15
	c0-0.15,1.2-2.84,1.2-2.84l-6.58,1.35l1.79,6.72l-4.03-2.24v-4.93l-9.12-8.37c0,0-1.65-1.2,0.75-3.14c0,0.15,1.79-1.19-0.6-2.09
	c0.15,0-2.09,0.3-1.65-2.09c0-0.15,0.3-5.53,0.3-5.53l-5.83-5.53l-0.45-1.8c0,0-0.9-2.69,0.45-4.34c1.35-1.64,0.6-2.09,0.6-2.09
	l2.69-0.45c0,0,1.05-1.49,1.2-3.14c0.15-1.65,0.9-1.65,0.9-1.65s-1.5-1.49-0.9-3.29c0.6-1.79,1.49-4.34,1.49-4.34l-2.69-2.84
	c0,0-1.64-1.05,0.6-2.24c2.25-1.19-0.15-0.45-0.15-1.95C72.55,59.39,71.95,58.34,71.95,58.34"/>
<path fill="none" stroke="#ADB8DD" stroke-width="0.6464" d="M71.95,58.34h42.9V99l61.59,54.7l3.74,8.83l1.35-0.45l1.8-0.6
	l0.45,0.75l-0.31,0.74l0.6,2.55l-5.23,4.48l2.54,4.93l-3.29,7.62c0,0,1.05,1.49,3.29,0.6c0-0.15,0.15,6.13,0.15,6.13l-27.95,4.93
	c0,0-1.64,1.34-2.39,1.05l-0.75-4.64l-6.87-7.02l-0.15-1.19l-0.89-0.9l-3.45,2.24c0,0-0.74,2.24-1.64-0.15
	c0.15-0.15-1.19-7.17-1.19-7.17s0.3-1.79-1.65-0.9c-0.15,0-3.29,1.19-3.29,1.19l-3.88-1.05c0,0-3.14,1.2-2.69-3.29l-6.43-2.84
	l-5.23,2.39c0,0-1.79,0.9-1.79-0.74c0.15-0.15-0.45-4.04-0.45-4.04s-1.05-1.35-0.45-2.69c0,0.15-1.35-1.79-1.35-1.79l-2.84-2.69
	l0.89-1.95c0,0,0.3-1.05-1.34-1.64c0.15,0-3.44,0-3.88-1.49l-6.13-13.45c0,0-1.49-2.4,3.44-0.6c-0.15,0,0.75,0.15-0.75-2.25
	c0-0.15,1.05-2.84-1.94-2.54c0.15,0.15-2.54-0.14-2.54-0.14s-1.04-0.9-2.24-0.75c-1.2,0.15-1.8-0.6-1.65-2.09
	c0.15-1.49,0.89-4.64-1.8-7.47c0-0.15,0.9-0.9,0.9-0.9l5.53,2.99l2.25,3.73c0,0,1.94,1.94,0.75-1.05c0.15,0-2.09-3.59-2.09-3.59
	l-1.49-3.43c0,0-2.39-2.39,4.18-3.44c0.15,0.15,4.63-1.05,1.05-1.34c0.15,0.14-3.88-0.75-3.88-0.75s-3.14,2.24-2.85-0.15
	c0-0.15,1.2-2.84,1.2-2.84l-6.58,1.35l1.79,6.72l-4.03-2.24v-4.93l-9.12-8.37c0,0-1.65-1.2,0.75-3.14c0,0.15,1.79-1.19-0.6-2.09
	c0.15,0-2.09,0.3-1.65-2.09c0-0.15,0.3-5.53,0.3-5.53l-5.83-5.53l-0.45-1.8c0,0-0.9-2.69,0.45-4.34c1.35-1.64,0.6-2.09,0.6-2.09
	l2.69-0.45c0,0,1.05-1.49,1.2-3.14c0.15-1.65,0.9-1.65,0.9-1.65s-1.5-1.49-0.9-3.29c0.6-1.79,1.49-4.34,1.49-4.34l-2.69-2.84
	c0,0-1.64-1.05,0.6-2.24c2.25-1.19-0.15-0.45-0.15-1.95C72.55,59.39,71.95,58.34,71.95,58.34z"/>
<path fill="#0054A4" d="M64.12,146.11c-0.21-0.45-0.46-0.85-0.76-1.19c-0.3-0.33-0.64-0.6-1.01-0.78c-0.37-0.19-0.79-0.31-1.24-0.37
	c-0.31-0.04-1-0.05-1.52-0.05h-3.04l-2.25,14h4c0.95,0,1.64-0.07,2.12-0.21c0.81-0.25,1.49-0.66,2.03-1.21
	c0.67-0.69,1.23-1.62,1.67-2.77c0.43-1.14,0.65-2.46,0.65-3.94c0-0.67-0.05-1.31-0.16-1.91C64.49,147.08,64.33,146.57,64.12,146.11z
	 M62,149.5c0,1.08-0.14,2.01-0.4,2.79c-0.27,0.78-0.6,1.41-0.99,1.87c-0.25,0.29-0.53,0.5-0.81,0.6c-0.22,0.08-0.68,0.17-1.58,0.17
	h-0.69l1.34-8.37h0.95c0.76,0,1.07,0.1,1.16,0.14c0.28,0.12,0.52,0.4,0.72,0.81C61.89,147.93,62,148.6,62,149.5z M79.3,147.54
	c0-0.84-0.15-1.57-0.43-2.17c-0.29-0.62-0.7-1.06-1.21-1.31c-0.48-0.23-1.13-0.35-1.97-0.35h-4.83l-2.24,14.01h2.76l0.89-5.54h0.58
	c0.52,0,0.75,0.1,0.84,0.18c0.19,0.18,0.5,0.61,0.84,1.6c0.56,1.67,0.89,2.78,1.06,3.51l0.06,0.25h2.95l-0.12-0.42
	c-0.59-1.95-1.11-3.42-1.59-4.47c-0.16-0.34-0.32-0.65-0.5-0.91c0.89-0.24,1.59-0.71,2.07-1.39
	C79.02,149.74,79.3,148.74,79.3,147.54z M76.58,147.58c0,0.36-0.09,0.7-0.28,1.03c-0.18,0.31-0.41,0.54-0.73,0.69
	c-0.23,0.11-0.78,0.24-2.13,0.24h-0.75l0.48-2.94h2.06c0.77,0,0.98,0.11,1.01,0.14C76.47,146.91,76.58,147.19,76.58,147.58z
	 M85.59,157.72h-2.77l2.24-14h2.76L85.59,157.72z M96.6,157.72h-2.77l-1.91-14h2.74l0.04,0.28l1.15,8.91l3.85-9.2h2.79L96.6,157.72z
	 M106.54,143.71h2.76l-2.24,14h-2.76L106.54,143.71z M120.8,143.71h2.62l-2.24,14h-2.48l-2.42-7.87l-1.26,7.87h-2.62l2.24-14h2.47
	l2.43,7.84L120.8,143.71z M130.52,148.96c-0.31,0.93-0.47,1.96-0.47,3.06c0,1.06,0.18,1.83,0.53,2.31c0.33,0.45,0.81,0.67,1.46,0.67
	c0.44,0,0.86-0.08,1.29-0.23c0.42-0.15,0.76-0.31,1.04-0.49l0.24-1.48h-2.63l0.47-2.87h5.23l-1.01,6.23l-0.09,0.08
	c-0.57,0.48-1.27,0.88-2.07,1.21c-0.83,0.33-1.68,0.49-2.53,0.49c-1.36,0-2.42-0.41-3.15-1.22c-0.98-1.08-1.47-2.66-1.47-4.67
	c0-1.34,0.21-2.63,0.61-3.85c0.49-1.49,1.2-2.66,2.12-3.48c0.94-0.84,2.05-1.27,3.31-1.27c1.27,0,2.3,0.4,3.07,1.18
	c0.76,0.77,1.27,1.88,1.51,3.31l0.05,0.33l-2.58,0.39l-0.07-0.29c-0.16-0.7-0.41-1.21-0.75-1.55c-0.32-0.32-0.72-0.48-1.22-0.48
	c-0.62,0-1.16,0.2-1.67,0.62C131.24,147.39,130.82,148.06,130.52,148.96z M86.11,171.49c-0.29,0.95-0.44,1.91-0.44,2.85
	c0,1.01,0.18,1.78,0.53,2.3c0.66,0.98,1.66,0.96,2.47,0.14c0.41-0.42,0.72-1.06,0.93-1.9l0.07-0.3l2.77,0.54l-0.09,0.33
	c-0.43,1.56-1.08,2.77-1.95,3.59c-0.89,0.85-1.95,1.28-3.14,1.28c-1.36,0-2.43-0.54-3.2-1.61c-0.75-1.06-1.12-2.53-1.12-4.48
	c0-1.55,0.25-2.99,0.73-4.29c0.49-1.3,1.18-2.32,2.07-3.03c0.89-0.71,1.88-1.07,2.94-1.07c1.2,0,2.18,0.43,2.93,1.26
	c0.73,0.83,1.16,1.95,1.29,3.35l0.03,0.31l-2.64,0.34l-0.05-0.32c-0.1-0.71-0.29-1.22-0.57-1.53c-0.26-0.28-0.59-0.41-1.03-0.41
	c-0.51,0-0.97,0.2-1.41,0.61C86.77,169.89,86.4,170.57,86.11,171.49z M104.78,166.09h2.76l-2.25,14h-2.76l0.96-5.98h-3.32
	l-0.96,5.98h-2.76l2.24-14h2.76l-0.82,5.16h3.32L104.78,166.09z M115.4,166.08l-6.07,14h2.9l1.23-2.95h3.56l0.34,2.95h2.65l-1.75-14
	H115.4z M116.69,174.27h-2.02l1.59-3.78L116.69,174.27z M132.45,166.08h2.62l-2.24,14h-2.47l-2.43-7.88l-1.26,7.88h-2.61l2.24-14
	h2.47l2.44,7.84L132.45,166.08z M142.17,171.33c-0.31,0.94-0.46,1.97-0.46,3.07c0,1.05,0.18,1.83,0.53,2.3
	c0.33,0.46,0.81,0.68,1.46,0.68c0.42,0,0.85-0.08,1.28-0.23c0.4-0.14,0.75-0.3,1.05-0.49l0.23-1.49h-2.63l0.47-2.86h5.23l-0.99,6.23
	l-0.09,0.08c-0.56,0.47-1.26,0.88-2.08,1.21c-0.84,0.34-1.67,0.5-2.53,0.5c-1.35,0-2.41-0.41-3.15-1.23
	c-0.98-1.08-1.47-2.65-1.47-4.66c0-1.33,0.21-2.62,0.62-3.84c0.48-1.48,1.2-2.65,2.11-3.48c0.93-0.84,2.05-1.27,3.31-1.27
	c1.27,0,2.3,0.4,3.08,1.18c0.77,0.76,1.28,1.87,1.51,3.31l0.05,0.33l-2.58,0.38l-0.07-0.29c-0.17-0.71-0.42-1.22-0.75-1.55
	c-0.32-0.32-0.72-0.48-1.22-0.48c-0.62,0-1.16,0.2-1.67,0.62C142.89,169.76,142.48,170.43,142.17,171.33z M155.67,166.08h8.23
	l-0.47,2.88h-5.46l-0.4,2.4h5.31l-0.47,2.87h-5.32l-0.49,2.99h5.93l-0.47,2.87h-8.63L155.67,166.08z M167.47,176.91h2.63l-0.48,3.17
	h-2.63L167.47,176.91z M175.43,176.91h2.63l-0.48,3.17h-2.64L175.43,176.91z M186.01,176.91l-0.49,3.17h-2.63l0.49-3.17H186.01z
	 M203.63,82.33l-29.2,43.27h-33.6l18.33-43.27h15.74l-7.06,23.06l17.74-23.06H203.63z M97.89,98.19
	c-0.26,0.41-7.98,14.09-12.02,21.27c-0.08,0.2-2.69,5.79-12.31,5.97c-3.69,0.06-8.86,0.09-14.09,0.09c-10.4,0-21.11-0.09-21.27-0.09
	l-0.88-0.01L62.04,82.5l30.06,0c2.37,0,5.5,1.34,7.16,4.34C101,89.97,100.51,94,97.89,98.19z M80.76,93.09
	c-0.06-0.11-0.24-0.43-1.08-0.43l-4.91,0l-13.28,24.17c1.18,0.05,3.4,0.13,5.14,0.13c1.25,0,2.21-1.13,3.36-2.96
	c2.59-4.12,5.38-9.29,5.4-9.34c0.02-0.03,2.12-4.01,4.3-7.66C80.71,95.28,81.13,93.75,80.76,93.09z M137.99,82.33l-10.18,11.4
	l0.37-11.4h-16.6L86.85,125.6h18.17l6.02-11.41l-0.3,11.64l11.48-10.65l-5.4,10.42h19.11l18.84-43.27H137.99z"/>
<path fill="#FFD457" d="M25.05,140.94l0.79,3.72c0.17,0.84,0.25,1.49,0.21,1.96c-0.05,0.63-0.25,1.2-0.61,1.71
	c-0.36,0.52-0.83,0.95-1.43,1.31c-0.6,0.36-1.37,0.64-2.31,0.84c-0.83,0.18-1.57,0.22-2.21,0.15c-0.79-0.1-1.46-0.33-2.01-0.7
	c-0.42-0.28-0.79-0.7-1.11-1.26c-0.24-0.42-0.44-1.01-0.6-1.76l-0.82-3.84L25.05,140.94z M23.78,143.33l-6.7,1.42l0.33,1.53
	c0.12,0.57,0.24,0.98,0.36,1.22c0.15,0.31,0.35,0.56,0.59,0.74c0.24,0.17,0.61,0.28,1.09,0.33c0.48,0.04,1.11-0.02,1.9-0.19
	c0.78-0.17,1.37-0.36,1.76-0.59c0.39-0.23,0.67-0.49,0.86-0.79c0.18-0.29,0.27-0.65,0.27-1.05c0-0.3-0.09-0.86-0.26-1.7
	L23.78,143.33z M20.28,162.77l1.65-0.55l-1.81-5.46l2.69-0.89l1.62,4.91l1.65-0.55l-1.63-4.91l2.17-0.72l1.74,5.28l1.65-0.55
	l-2.4-7.25l-9.8,3.24L20.28,162.77z M21.73,166.43l9.4-4.26l1.38,3.04c0.52,1.15,0.82,1.93,0.88,2.32c0.1,0.6,0,1.19-0.31,1.77
	c-0.31,0.58-0.84,1.04-1.59,1.37c-0.57,0.27-1.1,0.38-1.59,0.35c-0.49-0.03-0.92-0.16-1.29-0.38c-0.38-0.22-0.67-0.48-0.89-0.78
	c-0.3-0.41-0.64-1.05-1.03-1.91l-0.56-1.23l-3.55,1.61L21.73,166.43z M30.41,164.78L27.72,166l0.47,1.04
	c0.34,0.75,0.62,1.23,0.83,1.44c0.21,0.21,0.46,0.34,0.74,0.38c0.27,0.05,0.55,0.01,0.83-0.12c0.34-0.15,0.58-0.38,0.72-0.69
	c0.13-0.3,0.15-0.62,0.07-0.96c-0.06-0.25-0.25-0.71-0.55-1.39L30.41,164.78z M30.91,184.12l-1.12-1.94l1.58-1.95l-2.07-3.58
	l-2.45,0.45l-1.12-1.93l10.91-1.75l1.12,1.94L30.91,184.12z M32.53,178.77l2.6-3.17l-4.01,0.73L32.53,178.77z M32.78,186.86
	l8.3-6.14l2.61,3.52c0.65,0.89,1.06,1.59,1.21,2.11c0.15,0.51,0.12,1.03-0.08,1.55c-0.2,0.52-0.55,0.97-1.04,1.33
	c-0.62,0.46-1.27,0.66-1.95,0.59c-0.68-0.07-1.34-0.43-1.98-1.08c0.06,0.52,0.04,0.99-0.03,1.41c-0.07,0.42-0.29,1.07-0.63,1.95
	l-0.87,2.21l-1.49-2l0.92-2.55c0.32-0.91,0.51-1.5,0.56-1.78c0.05-0.29,0.04-0.53-0.03-0.76c-0.07-0.22-0.24-0.52-0.53-0.91
	l-0.25-0.34l-3.46,2.56L32.78,186.86z M38.81,184.99l0.93,1.25c0.59,0.8,1,1.28,1.22,1.43c0.22,0.15,0.45,0.22,0.7,0.21
	c0.25-0.01,0.5-0.1,0.75-0.29c0.28-0.21,0.45-0.45,0.51-0.72c0.06-0.27,0.01-0.57-0.14-0.88c-0.08-0.14-0.38-0.56-0.88-1.24
	l-0.97-1.31L38.81,184.99z M43.44,200.04l6.33-5.8l2.06,2.24l1.28-1.17l-5.53-6.03l-1.28,1.17l2.07,2.25l-6.33,5.8L43.44,200.04z
	 M49.45,206.05l5.34-6.12L51,207.4l1.5,1.31l6.88-4.79l-5.33,6.13l1.46,1.28l6.78-7.79l-2.37-2.06l-6.01,4.1l3.22-6.54l-2.37-2.06
	l-6.77,7.79L49.45,206.05z M65.42,218.32l0.98-1.43l-4.75-3.26l1.59-2.33l4.27,2.92l0.98-1.43l-4.27-2.92l1.29-1.88l4.58,3.13
	l0.98-1.43l-6.3-4.31l-5.83,8.52L65.42,218.32z M70.52,221.29l3.19-5.96l0.5,7.94l1.85,0.99l4.87-9.1l-1.71-0.92l-3.26,6.1
	l-0.49-8.09l-1.8-0.96l-4.86,9.11L70.52,221.29z M84.09,227.71l3.22-7.95l2.83,1.14l0.65-1.61l-7.58-3.07l-0.65,1.61l2.83,1.14
	l-3.22,7.96L84.09,227.71z M96.54,226.63c0.23-1.03,0.58-1.86,1.05-2.49c0.35-0.47,0.76-0.86,1.25-1.18
	c0.49-0.32,0.99-0.52,1.51-0.61c0.69-0.12,1.44-0.1,2.26,0.09c1.48,0.33,2.56,1.06,3.24,2.19c0.69,1.13,0.84,2.51,0.46,4.17
	c-0.37,1.63-1.1,2.81-2.19,3.53c-1.1,0.72-2.38,0.91-3.86,0.58c-1.49-0.34-2.58-1.07-3.26-2.19
	C96.33,229.6,96.18,228.24,96.54,226.63 M98.65,227.03c-0.26,1.15-0.19,2.08,0.2,2.79c0.39,0.71,1,1.16,1.81,1.34
	s1.54,0.04,2.2-0.44c0.65-0.46,1.11-1.29,1.38-2.47c0.27-1.17,0.21-2.09-0.17-2.77c-0.38-0.69-0.99-1.13-1.82-1.32
	c-0.84-0.19-1.58-0.05-2.23,0.41C99.36,225.05,98.91,225.86,98.65,227.03 M111.02,234.58l0.49-4.35l4.29,0.48l0.2-1.72l-4.29-0.49
	l0.27-2.45l4.98,0.57l0.2-1.73l-7.05-0.8l-1.16,10.26L111.02,234.58z M127.63,235.46l-0.4-8.13l2.45,8.02l2-0.1l1.63-8.22l0.42,8.11
	l1.94-0.09l-0.51-10.31L132,224.9l-1.48,7.12l-2.21-6.94l-3.14,0.16l0.53,10.31L127.63,235.46z M138.66,229.6
	c-0.18-1.05-0.18-1.94,0-2.71c0.14-0.56,0.38-1.08,0.7-1.56c0.33-0.49,0.71-0.87,1.15-1.15c0.59-0.38,1.29-0.65,2.12-0.79
	c1.5-0.26,2.78-0.01,3.84,0.77c1.06,0.78,1.73,1.99,2.03,3.66c0.29,1.64,0.07,3.01-0.65,4.1c-0.73,1.09-1.84,1.76-3.33,2.02
	c-1.51,0.27-2.79,0.02-3.85-0.75C139.62,232.42,138.94,231.22,138.66,229.6 M140.76,229.15c0.21,1.17,0.62,2,1.26,2.5
	c0.63,0.5,1.37,0.68,2.18,0.54c0.82-0.14,1.44-0.56,1.87-1.25c0.42-0.68,0.52-1.62,0.32-2.81c-0.21-1.18-0.62-2.01-1.23-2.5
	c-0.62-0.49-1.34-0.66-2.19-0.51c-0.85,0.15-1.48,0.56-1.9,1.24C140.66,227.05,140.56,227.98,140.76,229.15 M157.32,230.7
	l-2.41-8.24l2.93-0.85l-0.48-1.67l-7.86,2.29l0.49,1.67l2.93-0.85l2.4,8.24L157.32,230.7z M160.99,224.24
	c-0.4-0.98-0.59-1.86-0.58-2.64c0.02-0.58,0.13-1.14,0.34-1.69c0.22-0.54,0.51-0.99,0.87-1.36c0.49-0.5,1.12-0.91,1.9-1.23
	c1.41-0.58,2.71-0.6,3.92-0.07c1.2,0.53,2.13,1.58,2.77,3.13c0.64,1.55,0.72,2.93,0.24,4.15c-0.48,1.22-1.42,2.12-2.81,2.7
	c-1.42,0.58-2.73,0.61-3.92,0.09C162.53,226.8,161.62,225.77,160.99,224.24 M162.94,223.36c0.46,1.09,1.04,1.82,1.77,2.17
	c0.74,0.36,1.49,0.38,2.25,0.05c0.77-0.31,1.29-0.85,1.55-1.61c0.26-0.76,0.17-1.7-0.3-2.81c-0.45-1.1-1.03-1.83-1.74-2.17
	c-0.7-0.35-1.45-0.36-2.25-0.03c-0.8,0.33-1.33,0.87-1.58,1.62C162.39,221.32,162.49,222.26,162.94,223.36 M175.64,223.41
	l-5.03-9.02l3.83-2.13c0.96-0.53,1.71-0.84,2.24-0.93c0.52-0.08,1.03,0.01,1.53,0.28c0.5,0.27,0.89,0.67,1.19,1.2
	c0.38,0.68,0.49,1.35,0.33,2.01c-0.15,0.66-0.59,1.28-1.32,1.83c0.52,0.01,0.99,0.08,1.4,0.21c0.41,0.13,1.03,0.43,1.85,0.89
	l2.08,1.15l-2.18,1.21l-2.41-1.23c-0.86-0.43-1.42-0.7-1.7-0.78c-0.27-0.09-0.52-0.11-0.76-0.07c-0.23,0.04-0.55,0.18-0.97,0.41
	l-0.37,0.2l2.1,3.76L175.64,223.41z M174.55,217.19l1.35-0.75c0.87-0.48,1.4-0.83,1.58-1.02c0.18-0.2,0.27-0.42,0.3-0.67
	c0.02-0.25-0.04-0.51-0.19-0.78c-0.17-0.31-0.39-0.51-0.65-0.6c-0.27-0.09-0.56-0.09-0.89,0.03c-0.15,0.07-0.61,0.3-1.35,0.72
	l-1.42,0.79L174.55,217.19z M195.09,210.7l-3.52-10.37l-1.73,1.37l2.76,7.55l-6.79-4.37l-1.78,1.4l9.3,5.81L195.09,210.7z
	 M205.95,200.79l-1.21-1.24l-4.12,4.02l-1.97-2.02l3.7-3.62l-1.22-1.24l-3.7,3.61l-1.59-1.63l3.97-3.88l-1.21-1.24l-5.47,5.34
	l7.22,7.39L205.95,200.79z M209.95,196.27l-3.5-2.87l2.61-3.17l3.49,2.88l1.32-1.61l-7.97-6.56l-1.32,1.61l3.14,2.57l-2.6,3.17
	l-3.14-2.57l-1.32,1.61l7.98,6.56L209.95,196.27z M217.42,186.45l-8.49-5.88l-1.18,1.71l8.49,5.88L217.42,186.45z M219.68,175.52
	c0.57,0.53,0.91,1.06,1.01,1.58c0.11,0.53,0.02,1.03-0.26,1.51c-0.38,0.65-0.93,1.04-1.64,1.17c-0.72,0.13-1.65-0.13-2.79-0.79
	c-1.07-0.62-1.72-1.27-1.96-1.96c-0.23-0.7-0.16-1.37,0.22-2.04c0.28-0.48,0.65-0.82,1.12-1c0.46-0.18,0.96-0.19,1.48-0.03
	l0.62-2.03c-0.84-0.2-1.57-0.22-2.19-0.03c-1.04,0.31-1.88,1.01-2.52,2.11c-0.72,1.25-0.89,2.51-0.51,3.75
	c0.38,1.25,1.32,2.3,2.81,3.17c1.41,0.81,2.74,1.08,4,0.78c1.26-0.29,2.23-1.04,2.91-2.23c0.56-0.97,0.78-1.9,0.66-2.8
	c-0.11-0.9-0.59-1.77-1.41-2.61L219.68,175.52 M228.68,165.46l-1.58-0.7l-2.1,4.73l-7.78-3.45l-0.84,1.9l9.36,4.16L228.68,165.46z
	 M232.41,154.62l-1.65-0.54l-1.79,5.47l-2.69-0.88l1.61-4.91l-1.66-0.54l-1.6,4.92l-2.17-0.7l1.72-5.28l-1.65-0.54l-2.37,7.26
	l9.82,3.2L232.41,154.62z M230.02,150.65c1.16,0.11,2.11-0.12,2.84-0.67c0.74-0.56,1.25-1.48,1.52-2.75
	c0.19-0.87,0.21-1.63,0.09-2.27c-0.12-0.64-0.4-1.17-0.84-1.6c-0.44-0.43-0.95-0.7-1.54-0.83c-0.63-0.14-1.21-0.11-1.7,0.06
	c-0.49,0.17-0.91,0.47-1.27,0.89c-0.35,0.42-0.75,1.1-1.2,2.03c-0.45,0.94-0.81,1.51-1.08,1.72c-0.21,0.16-0.44,0.22-0.68,0.17
	c-0.26-0.05-0.45-0.21-0.56-0.45c-0.18-0.38-0.2-0.87-0.07-1.46c0.12-0.57,0.32-0.98,0.61-1.21c0.29-0.24,0.7-0.34,1.24-0.32
	l0.35-2.05c-0.94-0.17-1.75,0.01-2.45,0.53c-0.69,0.52-1.17,1.41-1.44,2.67c-0.17,0.77-0.19,1.47-0.07,2.06
	c0.12,0.6,0.37,1.09,0.75,1.47c0.39,0.39,0.84,0.63,1.35,0.74c0.8,0.17,1.54,0,2.24-0.5c0.49-0.35,0.99-1.05,1.49-2.07
	c0.39-0.81,0.66-1.32,0.8-1.54c0.2-0.33,0.39-0.53,0.59-0.64c0.2-0.1,0.42-0.13,0.66-0.08c0.38,0.08,0.66,0.31,0.87,0.7
	c0.21,0.39,0.24,0.92,0.1,1.58c-0.13,0.62-0.39,1.08-0.78,1.37c-0.39,0.3-0.93,0.45-1.62,0.42L230.02,150.65 M30.5,76.6
	c1.49,0.64,2.83,0.75,4.05,0.32c1.21-0.42,2.27-1.42,3.18-2.99c0.62-1.08,0.99-2.07,1.11-2.97c0.12-0.9-0.02-1.73-0.42-2.48
	c-0.39-0.75-0.94-1.34-1.66-1.75c-0.79-0.45-1.54-0.67-2.26-0.65c-0.73,0.02-1.41,0.24-2.06,0.65c-0.65,0.41-1.46,1.14-2.46,2.19
	c-0.99,1.05-1.71,1.66-2.16,1.83c-0.35,0.13-0.68,0.11-0.97-0.06c-0.32-0.19-0.5-0.47-0.54-0.84c-0.06-0.58,0.12-1.24,0.54-1.97
	c0.41-0.71,0.86-1.16,1.34-1.35c0.48-0.19,1.08-0.16,1.78,0.1l1.34-2.57c-1.17-0.62-2.31-0.73-3.45-0.34
	c-1.14,0.39-2.16,1.37-3.06,2.93c-0.55,0.95-0.88,1.85-0.98,2.69c-0.1,0.84,0.02,1.6,0.36,2.28c0.34,0.68,0.83,1.2,1.46,1.56
	c0.98,0.57,2.04,0.67,3.16,0.3c0.8-0.26,1.75-0.97,2.86-2.12c0.86-0.9,1.43-1.46,1.7-1.7c0.4-0.34,0.75-0.54,1.06-0.59
	c0.31-0.05,0.61,0.01,0.9,0.17c0.46,0.27,0.74,0.7,0.84,1.31c0.11,0.61-0.07,1.32-0.54,2.12c-0.44,0.77-0.98,1.26-1.62,1.49
	c-0.65,0.23-1.42,0.18-2.32-0.15L30.5,76.6 M45.49,61.95l-9.48-7.22l2.57-3.38l-1.93-1.47l-6.9,9.07l1.93,1.47l2.58-3.39l9.48,7.22
	L45.49,61.95z M57.3,48.96l-2.19,2.26l-3.21-1.36l-3.98,4.13l1.53,3.11l-2.13,2.21l-6.45-13.99l2.13-2.2L57.3,48.96z M49.51,48.86
	l-5.2-2.27l2.49,5.09L49.51,48.86z M62.17,45.15l-7.55-9.22l3.29-2.69l-1.54-1.88l-8.82,7.22l1.54,1.88l3.29-2.7l7.55,9.22
	L62.17,45.15z M76.24,35.6l-1.28-2.05l-6.79,4.25l-2.07-3.31l6.1-3.82l-1.28-2.05l-6.1,3.82l-1.69-2.69l6.56-4.11l-1.29-2.06
	l-9.01,5.65l7.61,12.16L76.24,35.6z M80.41,25.54c-0.51-1.37-0.74-2.59-0.68-3.68c0.05-0.8,0.24-1.57,0.56-2.31
	c0.32-0.74,0.75-1.36,1.28-1.86c0.7-0.67,1.6-1.21,2.69-1.62c1.98-0.74,3.79-0.72,5.44,0.06c1.65,0.78,2.88,2.26,3.7,4.45
	c0.82,2.17,0.86,4.09,0.14,5.76c-0.72,1.67-2.06,2.87-4.04,3.61c-1.99,0.75-3.81,0.74-5.45-0.03
	C82.43,29.13,81.21,27.67,80.41,25.54 M83.17,24.39c0.57,1.52,1.35,2.54,2.35,3.06c0.99,0.52,2.04,0.58,3.12,0.17
	c1.08-0.41,1.82-1.13,2.22-2.17c0.4-1.04,0.31-2.34-0.28-3.89C90,20.02,89.24,19,88.28,18.5c-0.96-0.5-2-0.55-3.12-0.13
	c-1.12,0.42-1.87,1.14-2.27,2.17C82.5,21.56,82.59,22.84,83.17,24.39 M100.96,26.15l-1.33-5.95l5.84-1.31l-0.53-2.37l-5.85,1.31
	l-0.74-3.31l6.77-1.52l-0.53-2.37L95,12.79l3.14,14L100.96,26.15z M124.7,18c-0.21,1.06-0.58,1.84-1.12,2.35
	c-0.54,0.5-1.19,0.77-1.96,0.8c-1.04,0.03-1.9-0.33-2.58-1.07c-0.68-0.75-1.05-2.03-1.1-3.84c-0.06-1.71,0.24-2.95,0.87-3.74
	c0.64-0.79,1.49-1.2,2.55-1.23c0.77-0.02,1.43,0.17,1.98,0.58c0.55,0.41,0.93,0.99,1.12,1.73l2.84-0.78
	c-0.36-1.14-0.88-2.01-1.55-2.59c-1.13-1-2.57-1.47-4.32-1.42c-2.01,0.07-3.61,0.78-4.8,2.14c-1.19,1.36-1.75,3.23-1.67,5.62
	c0.07,2.26,0.74,4.01,2.01,5.28c1.27,1.26,2.85,1.86,4.76,1.8c1.54-0.05,2.79-0.47,3.77-1.26c0.98-0.79,1.66-1.98,2.04-3.56
	L124.7,18 M143,24.71l-3.14-0.34l-0.89-3.38l-5.71-0.63l-1.53,3.11l-3.05-0.34l7.11-13.65l3.05,0.34L143,24.71z M138.32,18.49
	l-1.39-5.51l-2.5,5.08L138.32,18.49z M154.41,27.59l0.58-2.34L148,23.52l2.84-11.47l-2.81-0.69l-3.41,13.81L154.41,27.59z
	 M159.01,29.28l4.68-13.56l-2.74-0.94l-4.67,13.56L159.01,29.28z M164.29,31.35l2.49-5.57l5.47,2.45l0.99-2.21l-5.47-2.45l1.39-3.1
	l6.33,2.83l0.99-2.21l-8.98-4.02l-5.86,13.1L164.29,31.35z M176.06,28.94c0.77-1.24,1.61-2.16,2.51-2.77
	c0.66-0.45,1.39-0.76,2.18-0.96c0.79-0.19,1.54-0.23,2.26-0.11c0.96,0.15,1.93,0.54,2.92,1.16c1.79,1.12,2.88,2.58,3.26,4.36
	c0.38,1.78-0.05,3.67-1.29,5.64c-1.23,1.96-2.73,3.17-4.49,3.6c-1.76,0.45-3.53,0.1-5.32-1.01c-1.81-1.13-2.9-2.59-3.28-4.35
	C174.43,32.73,174.85,30.88,176.06,28.94 M178.64,30.44c-0.86,1.38-1.2,2.62-1.01,3.73c0.19,1.11,0.78,1.97,1.75,2.58
	c0.98,0.62,2.01,0.77,3.07,0.45c1.07-0.31,2.04-1.17,2.93-2.58c0.87-1.39,1.22-2.62,1.04-3.69c-0.18-1.07-0.78-1.92-1.79-2.55
	c-1.01-0.63-2.04-0.8-3.1-0.49C180.48,28.19,179.52,29.04,178.64,30.44 M185.85,43.73l9.33-10.9l4.63,3.96
	c1.17,1,1.92,1.82,2.29,2.47c0.36,0.65,0.48,1.35,0.37,2.13c-0.11,0.77-0.44,1.48-0.99,2.12c-0.7,0.82-1.52,1.29-2.46,1.41
	c-0.94,0.12-1.94-0.16-3.02-0.84c0.24,0.69,0.37,1.33,0.39,1.92c0.03,0.6-0.06,1.54-0.26,2.84l-0.49,3.27l-2.63-2.25l0.44-3.73
	c0.16-1.34,0.23-2.2,0.21-2.6c-0.02-0.4-0.11-0.74-0.27-1.02c-0.16-0.28-0.5-0.63-1.01-1.07l-0.45-0.38l-3.89,4.55L185.85,43.73z
	 M193.43,39.33l1.63,1.39c1.05,0.9,1.75,1.42,2.09,1.56c0.34,0.14,0.68,0.15,1.01,0.07c0.34-0.09,0.64-0.3,0.93-0.63
	c0.31-0.37,0.46-0.75,0.46-1.14c0-0.39-0.16-0.77-0.46-1.13c-0.16-0.18-0.69-0.65-1.58-1.41l-1.72-1.47L193.43,39.33z M198.52,55.37
	l7.04-6.17l-3.22,10.51l1.92,2.19l10.79-9.46l-1.78-2.02l-7.2,6.31l3.33-10.73l-1.86-2.12l-10.79,9.46L198.52,55.37z M207.6,66.69
	l11.67-8.35l-1.69-2.36l-11.66,8.35L207.6,66.69z M215.71,80.1l-1.57-2.73l2.2-2.71l-2.86-4.97l-3.41,0.6l-1.53-2.66l15.22-2.3
	l1.53,2.65L215.71,80.1z M217.98,72.65l3.63-4.37l-5.58,0.97L217.98,72.65z M234.85,136.94c1.01,0.3,1.57,1.34,1.27,2.36
	c-0.3,1.03-1.34,1.61-2.35,1.32c-1-0.3-1.54-1.34-1.24-2.38C232.83,137.23,233.85,136.65,234.85,136.94 M233.91,140.17
	c0.8,0.23,1.61-0.18,1.84-0.98c0.24-0.77-0.23-1.55-1.02-1.78c-0.8-0.23-1.61,0.17-1.85,0.96
	C232.65,139.15,233.12,139.93,233.91,140.17 M235.16,139.33l-0.12,0.41l-1.78-0.52c0.02-0.17,0.06-0.41,0.14-0.7
	c0.1-0.34,0.21-0.48,0.33-0.57c0.11-0.09,0.26-0.12,0.44-0.07c0.22,0.06,0.31,0.27,0.32,0.5l0.02,0.01
	c0.11-0.16,0.27-0.21,0.53-0.19c0.29,0.02,0.4,0.01,0.47,0l-0.13,0.44c-0.08,0.04-0.24,0.02-0.47,0.02
	c-0.2-0.02-0.32,0.06-0.38,0.29l-0.06,0.19L235.16,139.33z M234.16,139.03l0.06-0.2c0.06-0.23,0.04-0.43-0.15-0.49
	c-0.16-0.05-0.31,0.04-0.38,0.3c-0.03,0.11-0.04,0.19-0.05,0.24L234.16,139.03z"/>
<path fill="#FFD457" d="M159.45,84.3l0.2-0.46h13.73l-0.14,0.46H159.45z M170.07,94.67h-15.01l-0.32,0.75h15.1L170.07,94.67z
	 M172.74,85.94h-13.98l-0.2,0.47h14.04L172.74,85.94z M171.49,90.03h-14.46l-0.24,0.57h14.53L171.49,90.03z M172.11,87.98h-14.22
	l-0.22,0.52h14.28L172.11,87.98z M170.88,92.02h-14.7l-0.29,0.69h14.78L170.88,92.02z M95.06,84.3c-0.38-0.18-0.76-0.35-1.14-0.46
	H62.45l-0.27,0.46H95.06z M147.28,113.03l-0.73,1.73h33.97l1.17-1.73H147.28z M74.8,107.83h16.45c0.33-0.58,0.65-1.16,0.98-1.73
	H75.76C75.52,106.55,75.18,107.16,74.8,107.83z M62.4,113.03H45.63l-1,1.73h16.81L62.4,113.03z M66.21,106.1H49.62l-1,1.73h16.63
	L66.21,106.1z M77.01,103.79h16.52c0.22-0.39,0.44-0.79,0.65-1.15H77.64C77.4,103.07,77.19,103.45,77.01,103.79z M78.59,100.93
	h16.56c0.21-0.37,0.41-0.72,0.59-1.04H79.18C78.97,100.25,78.78,100.59,78.59,100.93z M201.07,84.3l0.31-0.46h-15.64l-0.35,0.46
	H201.07z M80.56,97.53c-0.11,0.18-0.22,0.37-0.32,0.55h16.53c0.13-0.23,0.23-0.39,0.25-0.43c0.11-0.17,0.18-0.32,0.27-0.49H80.76
	C80.69,97.28,80.62,97.42,80.56,97.53z M178.91,92.71h16.48l0.47-0.69h-16.42L178.91,92.71z M176.82,95.43h16.74l0.51-0.75H177.4
	L176.82,95.43z M180.53,90.6h16.28l0.39-0.57h-16.23L180.53,90.6z M169.25,97.33h-15.32l-0.39,0.93h15.43L169.25,97.33z
	 M174.65,98.25h17.01l0.62-0.93h-16.92L174.65,98.25z M182.15,88.5h16.09l0.35-0.52h-16.04L182.15,88.5z M183.76,86.41h15.89
	l0.32-0.47h-15.84L183.76,86.41z M167.63,102.64h-15.94l-0.49,1.15h16.08L167.63,102.64z M166.05,107.79l0.52-1.69h-16.35
	l-0.73,1.73h16.64L166.05,107.79z M68.11,102.64H51.62l-0.66,1.15h16.52L68.11,102.64z M168.44,99.99h-15.63l-0.44,1.03h15.75
	L168.44,99.99z M167.27,107.83h17.92l1.17-1.73H168.6L167.27,107.83z M170.38,103.8h17.54l0.78-1.15h-17.43L170.38,103.8z
	 M172.51,101.02h17.27l0.7-1.03h-17.18L172.51,101.02z M112.1,113.03l-0.05,1.73h9.1l1.87-1.73H112.1z M98.19,107.83h44.36
	l0.75-1.73H99.18L98.19,107.83z M69.62,99.9H53.2l-0.6,1.04h16.45L69.62,99.9z M126.75,94.67h-21.05l-0.43,0.75h21.45L126.75,94.67z
	 M103.66,98.25h43.06l0.4-0.93h-42.93L103.66,98.25z M102.08,101.02h43.43l0.45-1.03h-43.29L102.08,101.02z M100.49,103.8h43.81
	l0.5-1.15h-43.66L100.49,103.8z M124.48,113.03L124.48,113.03l-0.89,1.73h15.94l0.76-1.73H124.48z M126.9,90.03h-18.54l-0.33,0.57
	h18.85L126.9,90.03z M127.67,95.43h20.28l0.33-0.75h-19.94L127.67,95.43z M127.09,84.3l0.02-0.46H111.9l-0.26,0.46H127.09z
	 M95.22,113.03l-0.99,1.73h15.35l0.91-1.73H95.22z M127.04,85.94H110.7l-0.27,0.47h16.59L127.04,85.94z M126.97,87.98h-17.44
	l-0.3,0.52h17.72L126.97,87.98z M126.84,92.02h-19.61l-0.4,0.69h19.99L126.84,92.02z M81.79,94.48c-0.05,0.25-0.07,0.49-0.16,0.75
	h16.64c0.11-0.25,0.22-0.51,0.31-0.75H81.79z M130.1,92.71h19.04l0.3-0.69h-18.72L130.1,92.71z M99.21,90.03H58.88l-0.33,0.58h40.69
	C99.24,90.41,99.23,90.21,99.21,90.03z M98.67,87.98h-38.6l-0.3,0.52h39.1C98.8,88.32,98.74,88.15,98.67,87.98z M71.12,97.16H54.78
	l-0.53,0.92h16.37L71.12,97.16z M72.6,94.48H56.32l-0.43,0.75h16.29L72.6,94.48z M73.95,92.02H57.74l-0.4,0.69h16.23L73.95,92.02z
	 M99.18,92.02H81.1c0.26,0.17,0.44,0.38,0.55,0.57c0.02,0.04,0.01,0.09,0.03,0.12h17.42C99.14,92.47,99.15,92.25,99.18,92.02z
	 M60.97,86.4h36.67c-0.12-0.15-0.23-0.33-0.36-0.46H61.24L60.97,86.4z M135.73,86.41h16.15l0.2-0.47h-15.94L135.73,86.41z
	 M131.98,90.6h18.07l0.25-0.57h-17.81L131.98,90.6z M133.85,88.5h17.11l0.23-0.52h-16.87L133.85,88.5z M71.78,113.03
	c-0.31,0.51-0.62,1.02-0.93,1.51c-0.05,0.08-0.1,0.14-0.15,0.23h16.64c0.31-0.55,0.63-1.13,0.98-1.73H71.78z M152.8,84.3l0.2-0.46
	h-14.98l-0.41,0.46H152.8z"/>
</svg>
